<svg id="Setting" viewBox="0 0 16 16" fill="none" xmlns="http://www.w3.org/2000/svg"><path fill-rule="evenodd" clip-rule="evenodd" d="M8 2.15771L13 5.07438L13 10.9256L8 13.8423L3 10.9256L3 5.07438L8 2.15771ZM7.49613 1.29394C7.80749 1.11231 8.19251 1.11231 8.50387 1.29394L13.5039 4.2106C13.8111 4.38981 14 4.71871 14 5.07438V10.9256C14 11.2813 13.8111 11.6102 13.5039 11.7894L8.50387 14.7061C8.19251 14.8877 7.80749 14.8877 7.49613 14.7061L2.49613 11.7894C2.18891 11.6102 2 11.2813 2 10.9256V5.07438C2 4.71871 2.18891 4.38981 2.49613 4.2106L7.49613 1.29394ZM10.2633 6.09507L5 9.13385L5.5 9.99988L10.7633 6.96109L10.2633 6.09507Z" fill="currentColor"></path></svg>