<svg id="brand_qq_24" viewBox="0 0 24 24" fill="none" xmlns="http://www.w3.org/2000/svg"><path d="M18.3262 10.3168C18.327 10.2893 18.3387 9.82506 18.3387 9.58562C18.3387 5.55264 16.4443 1.5002 11.7858 1.5C7.12723 1.5002 5.23276 5.55264 5.23276 9.58562C5.23276 9.81458 5.24351 10.2491 5.24503 10.3107L5.24518 10.3168L4.30497 12.6751C4.04744 13.3501 3.79317 14.0528 3.60687 14.6554C2.71838 17.529 3.00622 18.7182 3.22537 18.7448C3.69578 18.8019 5.05615 16.5816 5.05615 16.5816C5.05615 17.8673 5.71429 19.5452 7.1393 20.7568C6.60638 20.922 5.95335 21.176 5.53375 21.4874C5.15646 21.7675 5.20345 22.0529 5.27147 22.1682C5.57006 22.6745 10.3937 22.4914 11.7863 22.3338C13.1789 22.4914 18.0025 22.6745 18.3011 22.1682C18.3691 22.0529 18.4161 21.7675 18.0388 21.4874C17.619 21.1759 16.9655 20.9217 16.4324 20.7565C17.8572 19.545 18.5153 17.8672 18.5153 16.5816C18.5153 16.5816 19.8757 18.8019 20.346 18.7448C20.5652 18.7182 20.853 17.529 19.9646 14.6554C19.7783 14.0527 19.524 13.3501 19.2664 12.6751L18.3262 10.3168Z" fill="currentColor"></path></svg>